<svg id="svg" version="1.1" xmlns="http://www.w3.org/2000/svg" xmlns:xlink="http://www.w3.org/1999/xlink" width="400" height="400" viewBox="0, 0, 400,400"><g id="svgg"><path id="path0" d="M190.000 48.602 C 159.141 52.895,133.943 73.577,124.212 102.600 C 123.378 105.085,122.996 106.461,121.599 112.000 C 119.616 119.863,119.625 135.822,121.617 144.000 C 123.438 151.477,124.087 153.518,126.508 159.400 C 130.322 168.665,135.704 176.546,143.582 184.400 C 148.462 189.265,156.738 196.000,157.836 196.000 C 157.968 196.000,158.554 196.338,159.138 196.751 C 161.457 198.389,170.206 202.482,173.800 203.610 C 174.680 203.886,175.850 204.252,176.400 204.424 C 191.076 209.006,207.287 209.147,222.400 204.825 C 247.901 197.532,269.010 176.744,276.447 151.600 C 278.032 146.241,278.293 145.032,279.603 136.954 C 280.914 128.871,279.572 114.496,276.620 105.000 C 275.070 100.014,275.051 99.964,273.208 95.800 C 271.509 91.963,271.029 90.987,269.862 89.000 C 269.217 87.900,268.332 86.370,267.898 85.600 C 261.218 73.774,245.338 60.246,231.400 54.508 C 225.518 52.087,223.477 51.438,216.000 49.617 C 210.187 48.201,196.676 47.673,190.000 48.602 M144.000 224.826 C 137.500 225.869,136.137 226.192,131.295 227.837 C 126.569 229.442,121.419 231.658,119.108 233.081 C 118.287 233.587,117.494 234.000,117.346 234.000 C 117.197 234.000,116.486 234.450,115.764 235.000 C 115.043 235.550,114.328 236.000,114.176 236.000 C 113.876 236.000,108.960 239.565,107.004 241.200 C 102.188 245.227,94.262 254.101,92.353 257.604 C 91.997 258.257,91.521 259.018,91.295 259.296 C 89.131 261.958,85.112 270.995,83.066 277.800 C 80.132 287.556,79.957 290.032,80.088 319.779 L 80.200 345.358 84.000 348.322 C 88.027 351.463,88.061 351.486,94.469 355.745 C 96.741 357.255,99.088 358.830,99.684 359.245 C 100.280 359.660,100.874 360.000,101.003 360.000 C 101.132 360.000,102.182 360.603,103.334 361.341 C 109.283 365.146,119.732 370.336,129.600 374.386 C 131.910 375.334,134.340 376.338,135.000 376.616 C 139.551 378.534,154.525 382.987,161.000 384.347 C 162.100 384.578,164.170 385.024,165.600 385.337 C 170.414 386.392,177.401 387.464,185.526 388.395 C 191.761 389.109,202.639 389.318,208.600 388.838 C 218.722 388.023,221.007 387.736,231.000 386.024 C 232.898 385.699,237.759 384.692,240.800 383.994 C 247.959 382.352,259.583 378.757,266.695 375.986 C 270.123 374.650,270.389 374.538,273.711 373.041 C 274.982 372.469,276.105 372.000,276.207 372.000 C 277.077 372.000,292.120 364.183,296.290 361.564 C 297.660 360.704,298.884 360.000,299.011 360.000 C 299.532 360.000,312.091 351.388,315.800 348.488 L 319.800 345.360 319.800 318.380 C 319.800 291.497,319.702 289.092,318.361 283.000 C 315.792 271.335,310.716 260.819,303.013 251.200 C 301.937 249.856,294.096 242.029,292.638 240.843 C 290.249 238.899,284.919 235.258,282.600 233.986 C 281.280 233.262,279.626 232.348,278.925 231.956 C 273.453 228.892,263.152 225.774,254.630 224.601 C 247.352 223.600,150.417 223.797,144.000 224.826 " stroke="none" fill="#fbfbfb" fill-rule="evenodd"></path><path id="path1" d="M178.788 0.139 C 178.671 0.259,176.722 0.390,174.456 0.429 C 171.380 0.482,170.283 0.639,170.126 1.050 C 169.973 1.448,169.101 1.600,166.981 1.600 C 165.367 1.600,163.936 1.780,163.800 2.000 C 163.664 2.220,162.618 2.401,161.476 2.402 C 160.334 2.404,158.884 2.674,158.254 3.002 C 157.624 3.331,156.445 3.600,155.634 3.600 C 154.823 3.600,153.989 3.767,153.780 3.970 C 153.571 4.174,152.543 4.410,151.495 4.495 C 150.447 4.581,149.376 4.864,149.115 5.125 C 148.854 5.386,148.057 5.600,147.344 5.600 C 146.631 5.600,145.936 5.780,145.800 6.000 C 145.664 6.220,145.198 6.400,144.764 6.400 C 144.330 6.400,143.871 6.670,143.745 7.000 C 143.583 7.420,142.928 7.600,141.557 7.600 C 140.481 7.600,139.600 7.780,139.600 8.000 C 139.600 8.220,138.964 8.400,138.187 8.400 C 137.301 8.400,136.689 8.623,136.545 9.000 C 136.395 9.389,135.775 9.600,134.781 9.600 C 133.937 9.600,133.136 9.780,133.000 10.000 C 132.864 10.220,132.448 10.401,132.076 10.402 C 131.704 10.404,130.884 10.674,130.254 11.002 C 129.624 11.331,128.784 11.600,128.388 11.600 C 127.991 11.600,127.607 11.763,127.533 11.962 C 127.460 12.161,126.950 12.386,126.400 12.462 C 125.850 12.538,125.162 12.825,124.871 13.100 C 124.581 13.375,123.988 13.600,123.555 13.600 C 122.819 13.600,122.434 13.827,121.015 15.100 C 120.708 15.375,119.994 15.600,119.429 15.600 C 118.863 15.600,118.400 15.780,118.400 16.000 C 118.400 16.220,118.074 16.400,117.676 16.400 C 117.279 16.400,116.604 16.664,116.176 16.987 C 115.749 17.310,114.995 17.580,114.500 17.587 C 114.005 17.594,113.600 17.780,113.600 18.000 C 113.600 18.220,113.150 18.400,112.600 18.400 C 111.978 18.400,111.600 18.627,111.600 19.000 C 111.600 19.373,111.222 19.600,110.600 19.600 C 110.050 19.600,109.600 19.780,109.600 20.000 C 109.600 20.220,109.150 20.400,108.600 20.400 C 107.978 20.400,107.600 20.627,107.600 21.000 C 107.600 21.340,107.241 21.600,106.771 21.600 C 106.316 21.600,105.692 21.825,105.385 22.100 C 104.004 23.339,103.596 23.600,103.040 23.600 C 102.714 23.600,102.336 23.780,102.200 24.000 C 102.064 24.220,101.612 24.400,101.196 24.400 C 100.780 24.400,100.296 24.625,100.120 24.900 C 99.797 25.404,97.485 26.814,96.910 26.857 C 96.739 26.870,96.645 27.042,96.700 27.240 C 96.755 27.438,96.416 27.600,95.946 27.600 C 95.476 27.600,94.675 28.050,94.165 28.600 C 93.655 29.150,92.986 29.600,92.678 29.600 C 92.369 29.600,91.631 30.050,91.038 30.600 C 90.444 31.150,89.711 31.600,89.408 31.600 C 89.106 31.600,88.504 32.050,88.071 32.600 C 87.639 33.150,87.113 33.600,86.904 33.600 C 86.122 33.600,83.943 34.907,82.577 36.196 C 81.800 36.929,80.885 37.635,80.544 37.766 C 80.203 37.897,79.830 38.363,79.715 38.802 C 79.581 39.318,79.169 39.600,78.553 39.600 C 78.029 39.600,77.600 39.780,77.600 40.000 C 77.600 40.220,77.370 40.400,77.089 40.400 C 76.808 40.400,76.009 40.920,75.312 41.556 C 74.616 42.192,73.946 42.612,73.823 42.490 C 73.700 42.367,73.600 42.528,73.600 42.847 C 73.600 43.166,73.105 43.732,72.500 44.104 C 71.475 44.734,70.507 45.560,66.717 49.039 C 65.902 49.788,65.047 50.400,64.817 50.400 C 64.588 50.400,64.400 50.593,64.400 50.829 C 64.400 51.372,63.387 52.400,62.851 52.400 C 62.628 52.400,62.194 52.759,61.887 53.197 C 61.580 53.636,61.240 53.906,61.131 53.798 C 61.023 53.690,60.694 54.051,60.400 54.601 C 60.106 55.150,59.739 55.600,59.585 55.600 C 59.220 55.600,55.600 59.220,55.600 59.585 C 55.600 59.739,55.150 60.106,54.601 60.400 C 54.051 60.694,53.690 61.023,53.798 61.131 C 53.906 61.240,53.636 61.580,53.197 61.887 C 52.759 62.194,52.400 62.628,52.400 62.851 C 52.400 63.387,51.372 64.400,50.829 64.400 C 50.593 64.400,50.400 64.588,50.400 64.817 C 50.400 65.047,49.788 65.902,49.039 66.717 C 45.560 70.507,44.734 71.475,44.104 72.500 C 43.732 73.105,43.166 73.600,42.847 73.600 C 42.528 73.600,42.367 73.700,42.490 73.823 C 42.612 73.946,42.192 74.616,41.556 75.312 C 40.920 76.009,40.400 76.808,40.400 77.089 C 40.400 77.370,40.220 77.600,40.000 77.600 C 39.780 77.600,39.600 78.029,39.600 78.553 C 39.600 79.169,39.318 79.581,38.802 79.715 C 38.363 79.830,37.897 80.203,37.766 80.544 C 37.635 80.885,36.929 81.800,36.196 82.577 C 34.907 83.943,33.600 86.122,33.600 86.904 C 33.600 87.113,33.150 87.639,32.600 88.071 C 32.050 88.504,31.600 89.106,31.600 89.408 C 31.600 89.711,31.150 90.444,30.600 91.038 C 30.050 91.631,29.600 92.369,29.600 92.678 C 29.600 92.986,29.150 93.655,28.600 94.165 C 28.050 94.675,27.600 95.476,27.600 95.946 C 27.600 96.416,27.465 96.755,27.300 96.700 C 27.135 96.645,26.992 96.690,26.982 96.800 C 26.936 97.301,25.348 99.833,24.900 100.120 C 24.625 100.296,24.400 100.780,24.400 101.196 C 24.400 101.612,24.220 102.064,24.000 102.200 C 23.780 102.336,23.600 102.719,23.600 103.052 C 23.600 103.385,23.375 103.908,23.100 104.215 C 21.823 105.638,21.600 106.021,21.600 106.783 C 21.600 107.243,21.337 107.600,21.000 107.600 C 20.627 107.600,20.400 107.978,20.400 108.600 C 20.400 109.150,20.220 109.600,20.000 109.600 C 19.780 109.600,19.600 110.050,19.600 110.600 C 19.600 111.222,19.373 111.600,19.000 111.600 C 18.627 111.600,18.400 111.978,18.400 112.600 C 18.400 113.150,18.220 113.600,18.000 113.600 C 17.780 113.600,17.594 114.005,17.587 114.500 C 17.580 114.995,17.310 115.749,16.987 116.176 C 16.664 116.604,16.400 117.279,16.400 117.676 C 16.400 118.074,16.220 118.400,16.000 118.400 C 15.780 118.400,15.600 118.863,15.600 119.429 C 15.600 119.994,15.375 120.708,15.100 121.015 C 13.827 122.434,13.600 122.819,13.600 123.555 C 13.600 123.988,13.375 124.581,13.100 124.871 C 12.825 125.162,12.538 125.850,12.462 126.400 C 12.386 126.950,12.161 127.460,11.962 127.533 C 11.763 127.607,11.600 127.991,11.600 128.388 C 11.600 128.784,11.331 129.624,11.002 130.254 C 10.674 130.884,10.404 131.704,10.402 132.076 C 10.401 132.448,10.220 132.864,10.000 133.000 C 9.780 133.136,9.600 133.937,9.600 134.781 C 9.600 135.775,9.389 136.395,9.000 136.545 C 8.623 136.689,8.400 137.301,8.400 138.187 C 8.400 138.964,8.220 139.600,8.000 139.600 C 7.780 139.600,7.600 140.481,7.600 141.557 C 7.600 142.928,7.420 143.583,7.000 143.745 C 6.670 143.871,6.400 144.330,6.400 144.764 C 6.400 145.198,6.220 145.664,6.000 145.800 C 5.780 145.936,5.600 146.631,5.600 147.344 C 5.600 148.057,5.386 148.854,5.125 149.115 C 4.864 149.376,4.581 150.447,4.495 151.495 C 4.410 152.543,4.174 153.571,3.970 153.780 C 3.767 153.989,3.600 154.823,3.600 155.634 C 3.600 156.445,3.331 157.624,3.002 158.254 C 2.674 158.884,2.404 160.334,2.402 161.476 C 2.401 162.618,2.220 163.664,2.000 163.800 C 1.780 163.936,1.600 165.367,1.600 166.981 C 1.600 169.101,1.448 169.973,1.050 170.126 C -0.242 170.621,-0.241 229.379,1.051 229.875 C 1.447 230.027,1.600 230.903,1.600 233.019 C 1.600 234.633,1.780 236.064,2.000 236.200 C 2.220 236.336,2.401 237.382,2.402 238.524 C 2.404 239.666,2.674 241.116,3.002 241.746 C 3.331 242.376,3.600 243.555,3.600 244.366 C 3.600 245.177,3.767 246.011,3.970 246.220 C 4.174 246.429,4.410 247.457,4.495 248.505 C 4.581 249.553,4.864 250.624,5.125 250.885 C 5.386 251.146,5.600 251.943,5.600 252.656 C 5.600 253.369,5.780 254.064,6.000 254.200 C 6.220 254.336,6.400 254.802,6.400 255.236 C 6.400 255.670,6.670 256.129,7.000 256.255 C 7.420 256.417,7.600 257.072,7.600 258.443 C 7.600 259.519,7.780 260.400,8.000 260.400 C 8.220 260.400,8.400 261.036,8.400 261.813 C 8.400 262.699,8.623 263.311,9.000 263.455 C 9.389 263.605,9.600 264.225,9.600 265.219 C 9.600 266.063,9.780 266.864,10.000 267.000 C 10.220 267.136,10.401 267.552,10.402 267.924 C 10.404 268.296,10.674 269.116,11.002 269.746 C 11.331 270.376,11.600 271.216,11.600 271.612 C 11.600 272.009,11.763 272.393,11.962 272.467 C 12.161 272.540,12.386 273.050,12.462 273.600 C 12.538 274.150,12.825 274.838,13.100 275.129 C 13.375 275.419,13.600 276.105,13.600 276.652 C 13.600 277.199,13.765 277.545,13.967 277.420 C 14.170 277.295,14.454 277.736,14.600 278.400 C 14.746 279.064,15.030 279.505,15.233 279.380 C 15.435 279.255,15.600 279.703,15.600 280.376 C 15.600 281.049,15.760 281.600,15.955 281.600 C 16.151 281.600,16.429 282.230,16.574 283.000 C 16.718 283.770,17.008 284.400,17.218 284.400 C 17.428 284.400,17.600 284.850,17.600 285.400 C 17.600 285.950,17.780 286.400,18.000 286.400 C 18.220 286.400,18.400 286.850,18.400 287.400 C 18.400 288.022,18.627 288.400,19.000 288.400 C 19.373 288.400,19.600 288.778,19.600 289.400 C 19.600 289.950,19.780 290.400,20.000 290.400 C 20.220 290.400,20.400 290.850,20.400 291.400 C 20.400 292.022,20.627 292.400,21.000 292.400 C 21.340 292.400,21.600 292.759,21.600 293.229 C 21.600 293.684,21.825 294.308,22.100 294.615 C 23.339 295.996,23.600 296.404,23.600 296.960 C 23.600 297.286,23.780 297.664,24.000 297.800 C 24.220 297.936,24.400 298.388,24.400 298.804 C 24.400 299.220,24.625 299.704,24.900 299.880 C 25.598 300.327,26.832 302.635,26.532 302.934 C 26.397 303.070,26.581 303.295,26.943 303.433 C 27.304 303.572,27.600 303.961,27.600 304.297 C 27.600 304.633,28.050 305.325,28.600 305.835 C 29.150 306.345,29.600 307.014,29.600 307.322 C 29.600 307.631,30.050 308.369,30.600 308.962 C 31.150 309.556,31.600 310.289,31.600 310.592 C 31.600 310.894,32.050 311.496,32.600 311.929 C 33.150 312.361,33.600 313.094,33.600 313.558 C 33.600 314.021,33.780 314.400,34.000 314.400 C 34.220 314.400,34.400 314.640,34.400 314.933 C 34.400 315.227,35.107 316.232,35.970 317.168 C 36.834 318.104,37.645 319.141,37.772 319.473 C 37.900 319.804,38.363 320.170,38.802 320.285 C 39.318 320.419,39.600 320.831,39.600 321.447 C 39.600 321.971,39.780 322.400,40.000 322.400 C 40.220 322.400,40.400 322.630,40.400 322.911 C 40.400 323.192,40.920 323.991,41.556 324.688 C 42.192 325.384,42.612 326.054,42.490 326.177 C 42.367 326.300,42.567 326.400,42.933 326.400 C 43.300 326.400,43.600 326.593,43.600 326.829 C 43.600 327.064,43.825 327.486,44.100 327.766 C 44.375 328.046,45.230 329.035,46.000 329.963 C 46.770 330.892,48.075 332.339,48.900 333.179 C 49.725 334.019,50.400 334.907,50.400 335.153 C 50.400 335.399,50.593 335.600,50.829 335.600 C 51.372 335.600,52.400 336.613,52.400 337.149 C 52.400 337.372,52.759 337.806,53.197 338.113 C 53.636 338.420,53.906 338.760,53.798 338.869 C 53.690 338.977,54.051 339.306,54.601 339.600 C 55.150 339.894,55.600 340.261,55.600 340.415 C 55.600 340.820,59.241 344.400,59.653 344.400 C 59.844 344.400,60.000 344.559,60.000 344.753 C 60.000 345.207,62.441 347.600,62.905 347.600 C 63.397 347.600,64.400 348.654,64.400 349.171 C 64.400 349.407,64.599 349.600,64.841 349.600 C 65.084 349.600,65.939 350.228,66.741 350.996 C 69.488 353.626,71.400 355.259,72.500 355.916 C 73.105 356.277,73.607 356.759,73.615 356.986 C 73.632 357.448,76.588 359.600,77.205 359.600 C 77.422 359.600,77.600 359.780,77.600 360.000 C 77.600 360.220,78.029 360.400,78.553 360.400 C 79.169 360.400,79.581 360.682,79.715 361.198 C 79.830 361.637,80.196 362.100,80.527 362.228 C 80.859 362.355,81.896 363.166,82.832 364.030 C 83.768 364.893,84.773 365.600,85.067 365.600 C 85.360 365.600,85.600 365.780,85.600 366.000 C 85.600 366.220,86.050 366.400,86.600 366.400 C 87.150 366.400,87.600 366.605,87.600 366.856 C 87.600 367.395,88.796 368.369,89.479 368.387 C 89.743 368.394,90.444 368.850,91.038 369.400 C 91.631 369.950,92.369 370.400,92.678 370.400 C 92.986 370.400,93.655 370.850,94.165 371.400 C 94.675 371.950,95.487 372.400,95.969 372.400 C 96.457 372.400,96.737 372.579,96.598 372.803 C 96.461 373.024,96.676 373.311,97.075 373.439 C 98.509 373.901,99.806 374.608,100.120 375.099 C 100.296 375.375,100.780 375.600,101.196 375.600 C 101.612 375.600,102.064 375.780,102.200 376.000 C 102.336 376.220,102.719 376.400,103.052 376.400 C 103.385 376.400,103.908 376.625,104.215 376.900 C 105.638 378.177,106.021 378.400,106.783 378.400 C 107.243 378.400,107.600 378.663,107.600 379.000 C 107.600 379.373,107.978 379.600,108.600 379.600 C 109.150 379.600,109.600 379.780,109.600 380.000 C 109.600 380.220,110.050 380.400,110.600 380.400 C 111.222 380.400,111.600 380.627,111.600 381.000 C 111.600 381.373,111.978 381.600,112.600 381.600 C 113.150 381.600,113.600 381.780,113.600 382.000 C 113.600 382.220,114.028 382.400,114.551 382.400 C 115.074 382.400,115.726 382.670,116.000 383.000 C 116.274 383.330,116.926 383.600,117.449 383.600 C 117.972 383.600,118.400 383.780,118.400 384.000 C 118.400 384.220,118.940 384.400,119.600 384.400 C 120.400 384.400,120.800 384.600,120.800 385.000 C 120.800 385.330,120.935 385.579,121.100 385.553 C 122.004 385.410,122.815 385.652,122.600 386.000 C 122.460 386.226,122.786 386.400,123.348 386.400 C 123.895 386.400,124.613 386.670,124.943 387.000 C 125.273 387.330,126.006 387.600,126.571 387.600 C 127.137 387.600,127.600 387.780,127.600 388.000 C 127.600 388.220,127.939 388.400,128.354 388.400 C 128.769 388.400,129.624 388.669,130.254 388.998 C 130.884 389.326,131.704 389.596,132.076 389.598 C 132.448 389.599,132.864 389.780,133.000 390.000 C 133.136 390.220,133.937 390.400,134.781 390.400 C 135.775 390.400,136.395 390.611,136.545 391.000 C 136.689 391.377,137.301 391.600,138.187 391.600 C 138.964 391.600,139.600 391.780,139.600 392.000 C 139.600 392.220,140.500 392.400,141.600 392.400 C 143.111 392.400,143.600 392.547,143.600 393.000 C 143.600 393.369,143.975 393.600,144.576 393.600 C 145.113 393.600,145.664 393.780,145.800 394.000 C 145.936 394.220,146.645 394.400,147.375 394.400 C 148.105 394.400,148.902 394.641,149.146 394.935 C 149.390 395.229,150.441 395.502,151.481 395.541 C 152.522 395.581,153.550 395.790,153.767 396.007 C 153.983 396.223,154.889 396.406,155.780 396.413 C 156.671 396.420,157.749 396.690,158.176 397.013 C 158.650 397.371,159.850 397.600,161.253 397.600 C 162.518 397.600,163.664 397.780,163.800 398.000 C 163.936 398.220,165.367 398.400,166.981 398.400 C 169.101 398.400,169.973 398.552,170.126 398.950 C 170.621 400.242,229.379 400.241,229.875 398.949 C 230.029 398.548,230.937 398.400,233.243 398.400 C 235.081 398.400,236.400 398.233,236.400 398.000 C 236.400 397.779,237.441 397.600,238.724 397.600 C 240.147 397.600,241.348 397.373,241.824 397.013 C 242.251 396.690,243.440 396.420,244.467 396.413 C 245.493 396.406,246.393 396.223,246.467 396.006 C 246.540 395.790,247.457 395.581,248.505 395.541 C 249.553 395.502,250.610 395.229,250.854 394.935 C 251.098 394.641,251.681 394.397,252.149 394.394 C 253.387 394.385,256.147 393.358,256.319 392.842 C 256.400 392.599,257.352 392.400,258.433 392.400 C 259.515 392.400,260.400 392.220,260.400 392.000 C 260.400 391.780,261.036 391.600,261.813 391.600 C 262.699 391.600,263.311 391.377,263.455 391.000 C 263.605 390.611,264.225 390.400,265.219 390.400 C 266.063 390.400,266.864 390.220,267.000 390.000 C 267.136 389.780,267.552 389.599,267.924 389.598 C 268.296 389.596,269.116 389.326,269.746 388.998 C 270.376 388.669,271.216 388.400,271.612 388.400 C 272.009 388.400,272.393 388.237,272.467 388.038 C 272.540 387.839,273.050 387.614,273.600 387.538 C 274.150 387.462,274.838 387.175,275.129 386.900 C 275.419 386.625,276.105 386.400,276.652 386.400 C 277.214 386.400,277.540 386.226,277.400 386.000 C 277.264 385.780,277.433 385.578,277.776 385.550 C 279.178 385.438,279.396 385.342,279.300 384.882 C 279.240 384.591,279.675 384.400,280.400 384.400 C 281.060 384.400,281.600 384.240,281.600 384.045 C 281.600 383.849,282.230 383.571,283.000 383.426 C 283.770 383.282,284.400 382.992,284.400 382.782 C 284.400 382.572,284.850 382.400,285.400 382.400 C 285.950 382.400,286.400 382.220,286.400 382.000 C 286.400 381.780,286.850 381.600,287.400 381.600 C 288.022 381.600,288.400 381.373,288.400 381.000 C 288.400 380.627,288.778 380.400,289.400 380.400 C 289.950 380.400,290.400 380.220,290.400 380.000 C 290.400 379.780,290.850 379.600,291.400 379.600 C 292.022 379.600,292.400 379.373,292.400 379.000 C 292.400 378.660,292.759 378.400,293.229 378.400 C 293.684 378.400,294.308 378.175,294.615 377.900 C 295.996 376.661,296.404 376.400,296.960 376.400 C 297.286 376.400,297.664 376.220,297.800 376.000 C 297.936 375.780,298.402 375.600,298.836 375.600 C 299.270 375.600,299.729 375.330,299.855 375.000 C 299.982 374.670,300.411 374.400,300.809 374.400 C 301.208 374.400,301.597 374.210,301.674 373.978 C 301.751 373.746,302.171 373.497,302.607 373.425 C 303.043 373.353,303.355 373.093,303.300 372.847 C 303.245 372.601,303.650 372.400,304.200 372.400 C 304.750 372.400,305.200 372.220,305.200 372.000 C 305.200 371.780,305.470 371.600,305.800 371.600 C 306.130 371.600,306.400 371.330,306.400 371.000 C 306.400 370.670,306.734 370.400,307.142 370.400 C 307.549 370.400,308.369 369.950,308.962 369.400 C 309.556 368.850,310.289 368.400,310.592 368.400 C 310.894 368.400,311.496 367.950,311.929 367.400 C 312.361 366.850,313.094 366.400,313.558 366.400 C 314.021 366.400,314.400 366.220,314.400 366.000 C 314.400 365.780,314.578 365.600,314.795 365.600 C 315.442 365.600,318.368 363.437,318.385 362.947 C 318.393 362.697,318.773 362.396,319.230 362.276 C 319.686 362.157,320.157 361.686,320.276 361.230 C 320.419 360.683,320.818 360.400,321.447 360.400 C 321.971 360.400,322.400 360.220,322.400 360.000 C 322.400 359.780,322.630 359.600,322.911 359.600 C 323.192 359.600,323.991 359.080,324.688 358.444 C 325.384 357.808,326.054 357.388,326.177 357.510 C 326.300 357.633,326.400 357.433,326.400 357.067 C 326.400 356.700,326.593 356.400,326.829 356.400 C 327.064 356.400,327.495 356.175,327.785 355.900 C 328.076 355.625,329.068 354.770,329.990 354.000 C 330.912 353.230,332.351 351.925,333.186 351.100 C 334.022 350.275,334.907 349.600,335.153 349.600 C 335.399 349.600,335.600 349.407,335.600 349.171 C 335.600 348.654,336.603 347.600,337.095 347.600 C 337.559 347.600,340.000 345.207,340.000 344.753 C 340.000 344.559,340.156 344.400,340.347 344.400 C 340.800 344.400,344.400 340.800,344.400 340.347 C 344.400 340.156,344.559 340.000,344.753 340.000 C 345.207 340.000,347.600 337.559,347.600 337.095 C 347.600 336.603,348.654 335.600,349.171 335.600 C 349.407 335.600,349.600 335.399,349.600 335.153 C 349.600 334.907,350.275 334.022,351.100 333.186 C 351.925 332.351,353.230 330.912,354.000 329.990 C 354.770 329.068,355.625 328.076,355.900 327.785 C 356.175 327.495,356.400 327.064,356.400 326.829 C 356.400 326.593,356.700 326.400,357.067 326.400 C 357.433 326.400,357.633 326.300,357.510 326.177 C 357.388 326.054,357.808 325.384,358.444 324.688 C 359.080 323.991,359.600 323.192,359.600 322.911 C 359.600 322.630,359.780 322.400,360.000 322.400 C 360.220 322.400,360.400 321.971,360.400 321.447 C 360.400 320.818,360.683 320.419,361.230 320.276 C 361.686 320.157,362.157 319.686,362.276 319.230 C 362.396 318.773,362.697 318.393,362.947 318.385 C 363.437 318.368,365.600 315.442,365.600 314.795 C 365.600 314.578,365.780 314.400,366.000 314.400 C 366.220 314.400,366.400 314.021,366.400 313.558 C 366.400 313.094,366.850 312.361,367.400 311.929 C 367.950 311.496,368.400 310.894,368.400 310.592 C 368.400 310.289,368.850 309.556,369.400 308.962 C 369.950 308.369,370.400 307.549,370.400 307.142 C 370.400 306.734,370.670 306.400,371.000 306.400 C 371.330 306.400,371.600 306.130,371.600 305.800 C 371.600 305.470,371.780 305.200,372.000 305.200 C 372.220 305.200,372.400 304.750,372.400 304.200 C 372.400 303.650,372.601 303.245,372.847 303.300 C 373.093 303.355,373.353 303.043,373.425 302.607 C 373.497 302.171,373.746 301.751,373.978 301.674 C 374.210 301.597,374.400 301.208,374.400 300.809 C 374.400 300.411,374.670 299.982,375.000 299.855 C 375.330 299.729,375.600 299.270,375.600 298.836 C 375.600 298.402,375.780 297.936,376.000 297.800 C 376.220 297.664,376.400 297.281,376.400 296.948 C 376.400 296.615,376.625 296.092,376.900 295.785 C 378.177 294.362,378.400 293.979,378.400 293.217 C 378.400 292.757,378.663 292.400,379.000 292.400 C 379.373 292.400,379.600 292.022,379.600 291.400 C 379.600 290.850,379.780 290.400,380.000 290.400 C 380.220 290.400,380.400 289.950,380.400 289.400 C 380.400 288.778,380.627 288.400,381.000 288.400 C 381.373 288.400,381.600 288.022,381.600 287.400 C 381.600 286.850,381.780 286.400,382.000 286.400 C 382.220 286.400,382.400 285.950,382.400 285.400 C 382.400 284.850,382.572 284.400,382.782 284.400 C 382.992 284.400,383.282 283.770,383.426 283.000 C 383.571 282.230,383.849 281.600,384.045 281.600 C 384.240 281.600,384.400 281.060,384.400 280.400 C 384.400 279.675,384.591 279.240,384.882 279.300 C 385.342 279.396,385.438 279.178,385.550 277.776 C 385.578 277.433,385.780 277.264,386.000 277.400 C 386.226 277.540,386.400 277.214,386.400 276.652 C 386.400 276.105,386.625 275.419,386.900 275.129 C 387.175 274.838,387.462 274.150,387.538 273.600 C 387.614 273.050,387.839 272.540,388.038 272.467 C 388.237 272.393,388.400 272.009,388.400 271.612 C 388.400 271.216,388.669 270.376,388.998 269.746 C 389.326 269.116,389.596 268.296,389.598 267.924 C 389.599 267.552,389.780 267.136,390.000 267.000 C 390.220 266.864,390.400 266.063,390.400 265.219 C 390.400 264.225,390.611 263.605,391.000 263.455 C 391.377 263.311,391.600 262.699,391.600 261.813 C 391.600 261.036,391.780 260.400,392.000 260.400 C 392.220 260.400,392.400 259.515,392.400 258.433 C 392.400 257.352,392.599 256.400,392.842 256.319 C 393.358 256.147,394.385 253.387,394.394 252.149 C 394.397 251.681,394.641 251.098,394.935 250.854 C 395.229 250.610,395.502 249.553,395.541 248.505 C 395.581 247.457,395.790 246.540,396.006 246.467 C 396.223 246.393,396.406 245.493,396.413 244.467 C 396.420 243.440,396.690 242.251,397.013 241.824 C 397.373 241.348,397.600 240.147,397.600 238.724 C 397.600 237.441,397.779 236.400,398.000 236.400 C 398.233 236.400,398.400 235.081,398.400 233.243 C 398.400 230.937,398.548 230.029,398.949 229.875 C 400.241 229.379,400.242 170.621,398.950 170.126 C 398.552 169.973,398.400 169.101,398.400 166.981 C 398.400 165.367,398.220 163.936,398.000 163.800 C 397.780 163.664,397.600 162.518,397.600 161.253 C 397.600 159.850,397.371 158.650,397.013 158.176 C 396.690 157.749,396.420 156.671,396.413 155.780 C 396.406 154.889,396.223 153.983,396.007 153.767 C 395.790 153.550,395.581 152.522,395.541 151.481 C 395.502 150.441,395.229 149.390,394.935 149.146 C 394.641 148.902,394.400 148.105,394.400 147.375 C 394.400 146.645,394.220 145.936,394.000 145.800 C 393.780 145.664,393.600 145.113,393.600 144.576 C 393.600 143.975,393.369 143.600,393.000 143.600 C 392.547 143.600,392.400 143.111,392.400 141.600 C 392.400 140.500,392.220 139.600,392.000 139.600 C 391.780 139.600,391.600 138.964,391.600 138.187 C 391.600 137.301,391.377 136.689,391.000 136.545 C 390.611 136.395,390.400 135.775,390.400 134.781 C 390.400 133.937,390.220 133.136,390.000 133.000 C 389.780 132.864,389.599 132.448,389.598 132.076 C 389.596 131.704,389.326 130.884,388.998 130.254 C 388.669 129.624,388.400 128.769,388.400 128.354 C 388.400 127.939,388.220 127.600,388.000 127.600 C 387.780 127.600,387.600 127.137,387.600 126.571 C 387.600 126.006,387.330 125.273,387.000 124.943 C 386.670 124.613,386.400 123.895,386.400 123.348 C 386.400 122.786,386.226 122.460,386.000 122.600 C 385.652 122.815,385.410 122.004,385.553 121.100 C 385.579 120.935,385.330 120.800,385.000 120.800 C 384.600 120.800,384.400 120.400,384.400 119.600 C 384.400 118.940,384.220 118.400,384.000 118.400 C 383.780 118.400,383.600 117.972,383.600 117.449 C 383.600 116.926,383.330 116.274,383.000 116.000 C 382.670 115.726,382.400 115.074,382.400 114.551 C 382.400 114.028,382.220 113.600,382.000 113.600 C 381.780 113.600,381.600 113.150,381.600 112.600 C 381.600 111.978,381.373 111.600,381.000 111.600 C 380.627 111.600,380.400 111.222,380.400 110.600 C 380.400 110.050,380.220 109.600,380.000 109.600 C 379.780 109.600,379.600 109.150,379.600 108.600 C 379.600 107.978,379.373 107.600,379.000 107.600 C 378.660 107.600,378.400 107.241,378.400 106.771 C 378.400 106.316,378.175 105.692,377.900 105.385 C 376.661 104.004,376.400 103.596,376.400 103.040 C 376.400 102.714,376.220 102.336,376.000 102.200 C 375.780 102.064,375.600 101.612,375.600 101.196 C 375.600 100.780,375.375 100.296,375.099 100.120 C 374.608 99.806,373.901 98.509,373.439 97.075 C 373.311 96.676,373.024 96.461,372.803 96.598 C 372.579 96.737,372.400 96.457,372.400 95.969 C 372.400 95.487,371.950 94.675,371.400 94.165 C 370.850 93.655,370.400 92.986,370.400 92.678 C 370.400 92.369,369.950 91.631,369.400 91.038 C 368.850 90.444,368.394 89.743,368.387 89.479 C 368.369 88.796,367.395 87.600,366.856 87.600 C 366.605 87.600,366.400 87.150,366.400 86.600 C 366.400 86.050,366.220 85.600,366.000 85.600 C 365.780 85.600,365.600 85.360,365.600 85.067 C 365.600 84.773,364.893 83.768,364.030 82.832 C 363.166 81.896,362.355 80.859,362.228 80.527 C 362.100 80.196,361.637 79.830,361.198 79.715 C 360.682 79.581,360.400 79.169,360.400 78.553 C 360.400 78.029,360.220 77.600,360.000 77.600 C 359.780 77.600,359.600 77.422,359.600 77.205 C 359.600 76.588,357.448 73.632,356.986 73.615 C 356.759 73.607,356.277 73.105,355.916 72.500 C 355.259 71.400,353.626 69.488,350.996 66.741 C 350.228 65.939,349.600 65.084,349.600 64.841 C 349.600 64.599,349.407 64.400,349.171 64.400 C 348.654 64.400,347.600 63.397,347.600 62.905 C 347.600 62.441,345.207 60.000,344.753 60.000 C 344.559 60.000,344.400 59.844,344.400 59.653 C 344.400 59.241,340.820 55.600,340.415 55.600 C 340.261 55.600,339.894 55.150,339.600 54.601 C 339.306 54.051,338.977 53.690,338.869 53.798 C 338.760 53.906,338.420 53.636,338.113 53.197 C 337.806 52.759,337.372 52.400,337.149 52.400 C 336.613 52.400,335.600 51.372,335.600 50.829 C 335.600 50.593,335.399 50.400,335.153 50.400 C 334.907 50.400,334.019 49.725,333.179 48.900 C 332.339 48.075,330.892 46.770,329.963 46.000 C 329.035 45.230,328.046 44.375,327.766 44.100 C 327.486 43.825,327.064 43.600,326.829 43.600 C 326.593 43.600,326.400 43.300,326.400 42.933 C 326.400 42.567,326.300 42.367,326.177 42.490 C 326.054 42.612,325.384 42.192,324.688 41.556 C 323.991 40.920,323.192 40.400,322.911 40.400 C 322.630 40.400,322.400 40.220,322.400 40.000 C 322.400 39.780,321.971 39.600,321.447 39.600 C 320.831 39.600,320.419 39.318,320.285 38.802 C 320.170 38.363,319.804 37.900,319.473 37.772 C 319.141 37.645,318.104 36.834,317.168 35.970 C 316.232 35.107,315.227 34.400,314.933 34.400 C 314.640 34.400,314.400 34.220,314.400 34.000 C 314.400 33.780,314.021 33.600,313.558 33.600 C 313.094 33.600,312.361 33.150,311.929 32.600 C 311.496 32.050,310.894 31.600,310.592 31.600 C 310.289 31.600,309.556 31.150,308.962 30.600 C 308.369 30.050,307.631 29.600,307.322 29.600 C 307.014 29.600,306.345 29.150,305.835 28.600 C 305.325 28.050,304.633 27.600,304.297 27.600 C 303.961 27.600,303.572 27.304,303.433 26.943 C 303.295 26.581,303.070 26.397,302.934 26.532 C 302.633 26.834,300.386 25.626,299.714 24.800 C 299.445 24.470,299.220 24.356,299.213 24.546 C 299.206 24.736,298.756 24.601,298.214 24.246 C 297.672 23.891,297.029 23.600,296.786 23.600 C 296.542 23.600,296.092 23.375,295.785 23.100 C 294.362 21.823,293.979 21.600,293.217 21.600 C 292.757 21.600,292.400 21.337,292.400 21.000 C 292.400 20.627,292.022 20.400,291.400 20.400 C 290.850 20.400,290.400 20.220,290.400 20.000 C 290.400 19.780,289.950 19.600,289.400 19.600 C 288.778 19.600,288.400 19.373,288.400 19.000 C 288.400 18.627,288.022 18.400,287.400 18.400 C 286.850 18.400,286.400 18.220,286.400 18.000 C 286.400 17.780,285.950 17.600,285.400 17.600 C 284.850 17.600,284.400 17.428,284.400 17.218 C 284.400 17.008,283.770 16.718,283.000 16.574 C 282.230 16.429,281.600 16.151,281.600 15.955 C 281.600 15.760,281.049 15.600,280.376 15.600 C 279.703 15.600,279.255 15.435,279.380 15.233 C 279.505 15.030,279.064 14.746,278.400 14.600 C 277.736 14.454,277.295 14.170,277.420 13.967 C 277.545 13.765,277.199 13.600,276.652 13.600 C 276.105 13.600,275.419 13.375,275.129 13.100 C 274.838 12.825,274.150 12.538,273.600 12.462 C 273.050 12.386,272.540 12.161,272.467 11.962 C 272.393 11.763,272.009 11.600,271.612 11.600 C 271.216 11.600,270.376 11.331,269.746 11.002 C 269.116 10.674,268.296 10.404,267.924 10.402 C 267.552 10.401,267.136 10.220,267.000 10.000 C 266.864 9.780,266.063 9.600,265.219 9.600 C 264.225 9.600,263.605 9.389,263.455 9.000 C 263.311 8.623,262.699 8.400,261.813 8.400 C 261.036 8.400,260.400 8.220,260.400 8.000 C 260.400 7.780,259.519 7.600,258.443 7.600 C 257.072 7.600,256.417 7.420,256.255 7.000 C 256.129 6.670,255.670 6.400,255.236 6.400 C 254.802 6.400,254.336 6.220,254.200 6.000 C 254.064 5.780,253.369 5.600,252.656 5.600 C 251.943 5.600,251.146 5.386,250.885 5.125 C 250.624 4.864,249.553 4.581,248.505 4.495 C 247.457 4.410,246.429 4.174,246.220 3.970 C 246.011 3.767,245.177 3.600,244.366 3.600 C 243.555 3.600,242.376 3.331,241.746 3.002 C 241.116 2.674,239.666 2.404,238.524 2.402 C 237.382 2.401,236.336 2.220,236.200 2.000 C 236.064 1.780,234.628 1.600,233.010 1.600 C 231.129 1.600,230.011 1.432,229.912 1.135 C 229.826 0.879,229.406 0.591,228.978 0.494 C 227.810 0.231,179.033 -0.114,178.788 0.139 M211.200 48.744 C 214.101 49.164,215.051 49.366,220.200 50.657 C 238.913 55.350,259.211 70.220,267.898 85.600 C 268.332 86.370,269.217 87.900,269.862 89.000 C 271.029 90.987,271.509 91.963,273.208 95.800 C 275.051 99.964,275.070 100.014,276.620 105.000 C 279.572 114.496,280.914 128.871,279.603 136.954 C 278.293 145.032,278.032 146.241,276.447 151.600 C 264.099 193.348,218.328 217.514,176.400 204.424 C 171.950 203.035,172.342 203.179,168.100 201.355 C 165.531 200.250,160.251 197.537,159.138 196.751 C 158.554 196.338,157.968 196.000,157.836 196.000 C 156.738 196.000,148.462 189.265,143.582 184.400 C 135.704 176.546,130.322 168.665,126.508 159.400 C 124.087 153.518,123.438 151.477,121.617 144.000 C 119.625 135.822,119.616 119.863,121.599 112.000 C 122.996 106.461,123.378 105.085,124.212 102.600 C 136.385 66.293,173.543 43.288,211.200 48.744 M254.630 224.601 C 263.152 225.774,273.453 228.892,278.925 231.956 C 279.626 232.348,281.280 233.262,282.600 233.986 C 288.878 237.430,298.449 245.502,303.013 251.200 C 310.716 260.819,315.792 271.335,318.361 283.000 C 319.702 289.092,319.800 291.497,319.800 318.380 L 319.800 345.360 315.800 348.488 C 312.091 351.388,299.532 360.000,299.011 360.000 C 298.884 360.000,297.660 360.704,296.290 361.564 C 292.120 364.183,277.077 372.000,276.207 372.000 C 276.105 372.000,274.982 372.469,273.711 373.041 C 270.389 374.538,270.123 374.650,266.695 375.986 C 259.583 378.757,247.959 382.352,240.800 383.994 C 237.759 384.692,232.898 385.699,231.000 386.024 C 221.007 387.736,218.722 388.023,208.600 388.838 C 202.639 389.318,191.761 389.109,185.526 388.395 C 177.401 387.464,170.414 386.392,165.600 385.337 C 164.170 385.024,162.100 384.578,161.000 384.347 C 154.525 382.987,139.551 378.534,135.000 376.616 C 134.340 376.338,131.910 375.334,129.600 374.386 C 119.732 370.336,109.283 365.146,103.334 361.341 C 102.182 360.603,101.132 360.000,101.003 360.000 C 100.874 360.000,100.280 359.660,99.684 359.245 C 99.088 358.830,96.741 357.255,94.469 355.745 C 88.061 351.486,88.027 351.463,84.000 348.322 L 80.200 345.358 80.088 319.779 C 79.957 290.032,80.132 287.556,83.066 277.800 C 85.112 270.995,89.131 261.958,91.295 259.296 C 91.521 259.018,91.997 258.257,92.353 257.604 C 94.262 254.101,102.188 245.227,107.004 241.200 C 108.960 239.565,113.876 236.000,114.176 236.000 C 114.328 236.000,115.043 235.550,115.764 235.000 C 116.486 234.450,117.197 234.000,117.346 234.000 C 117.494 234.000,118.287 233.587,119.108 233.081 C 122.607 230.927,132.867 226.959,137.495 225.971 C 146.460 224.056,145.349 224.091,199.430 224.044 C 242.632 224.007,250.917 224.090,254.630 224.601 " stroke="none" fill="#9c9c9c" fill-rule="evenodd"></path></g></svg>